<svg width="150" height="27" xmlns="http://www.w3.org/2000/svg" fill="none">
 <g id="Layer_1">
  <title>Layer 1</title>
  <path id="svg_7" fill="#28303F" d="m13.18382,27c7.4558,0 13.5,-6.0442 13.5,-13.5c0,-7.45584 -6.0442,-13.5 -13.5,-13.5c-2.7866,0 -5.37601,0.84429 -7.52637,2.29102c3.54212,0.57157 5.50337,2.84552 5.50337,6.17698c0,1.508 -1.014,3.224 -2.47004,3.77c2.02804,0.65 3.45804,2.626 3.45804,4.68c0,3.926 -2.80803,6.422 -7.56604,6.422l-0.64156,0c2.4154,2.2696 5.66663,3.66 9.2426,3.66zm-12.18929,-7.69l3.38025,0c1.872,0 3.042,-0.832 3.042,-2.392c0,-1.56 -1.17,-2.392 -3.042,-2.392l-4.65256,0c0.12791,1.7022 0.57147,3.3163 1.27231,4.784zm-1.02626,-8.58l3.62651,0c1.794,0 2.834,-0.78 2.834,-2.262c0,-1.482 -1.04,-2.288 -2.834,-2.288l-1.75606,0c-0.88365,1.36673 -1.52706,2.90332 -1.87045,4.55zm13.27735,10.218c0,-1.482 1.092,-2.6 2.6,-2.6c1.482,0 2.574,1.118 2.574,2.6c0,1.482 -1.092,2.6 -2.574,2.6c-1.508,0 -2.6,-1.118 -2.6,-2.6z" clip-rule="evenodd" fill-rule="evenodd"/>
  <text font-weight="bold" transform="matrix(1.02436 0 0 0.782356 0.220609 6.61828)" stroke="null" xml:space="preserve" text-anchor="start" font-family="Noto Sans JP" font-size="24" id="svg_2" y="18.72199" x="27.16385" fill="#28303F">Travel</text>
  <text font-weight="bold" transform="matrix(0.87743 0 0 0.80466 12.6191 5.08083)" stroke="null" xml:space="preserve" text-anchor="start" font-family="Noto Sans JP" font-size="24" id="svg_3" y="20.12337" x="103.84261" fill="#28303F">Blog</text>
 </g>
</svg>